<svg xmlns="http://www.w3.org/2000/svg" viewBox="0 0 947.22 267.25"><defs><style>.cls-1{fill:#04283e;}.cls-2{fill:#ffa100;}</style></defs><g id="Слой_2" data-name="Слой 2"><g id="Слой_1-2" data-name="Слой 1"><g id="_1" data-name="1"><path class="cls-1" d="M428.34,267.25l10-18.06-11.58-33.62h3.56L440.57,245l15.63-29.41h3.89l-28,51.68Z"/><path class="cls-1" d="M502.45,214.84q7.69,0,12.31,4.62,4.14,4.13,4.13,11.42,0,8.67-5.42,13.77-5.19,4.86-13.53,4.86-7.37,0-11.66-4.53a15.9,15.9,0,0,1-4.38-11.51,19.75,19.75,0,0,1,1.5-7.49,18.6,18.6,0,0,1,4-6.2A18.17,18.17,0,0,1,502.45,214.84Zm-2,31.59a14.5,14.5,0,0,0,10.2-3.72,15.06,15.06,0,0,0,4.86-11.5,13.42,13.42,0,0,0-3.48-9.4,13.07,13.07,0,0,0-9.88-3.89A14.51,14.51,0,0,0,487.3,233a13.61,13.61,0,0,0,3.73,9.8A12.38,12.38,0,0,0,500.43,246.43Z"/><path class="cls-1" d="M551.86,215.57h3.24l-2.43,19.93q-.81,6.39,2,9a8.17,8.17,0,0,0,5.67,1.94,8.75,8.75,0,0,0,6.72-2.59q2.26-2.43,2.91-8.34l2.43-19.93h3.24l-2.75,20.82q-1,7-3.32,9.64-3.17,3.48-9.4,3.48-5.34,0-8.26-3-3.41-3.56-2.51-10.85Z"/><path class="cls-1" d="M604.75,248.62l4-33.05H612l-.48,4.3a8.85,8.85,0,0,1,3.16-3.57,8.33,8.33,0,0,1,4.86-1.46,6.89,6.89,0,0,1,3.24.81l-2,2.92a3.9,3.9,0,0,0-2.35-.65A6,6,0,0,0,614,220q-2.84,3-3.89,12L608,248.62Z"/><path class="cls-1" d="M708.59,220.19l-2.91,1.46a5.34,5.34,0,0,0-1.87-2.68,6.54,6.54,0,0,0-3.64-1.05,6.29,6.29,0,0,0-4.62,1.78,5,5,0,0,0-1.46,3.65,4.5,4.5,0,0,0,1.3,3.16,10.71,10.71,0,0,0,3.4,2l2.51,1.06a14.93,14.93,0,0,1,4.86,2.91,8,8,0,0,1,2.19,5.83,10.92,10.92,0,0,1-2.92,7.7q-3.31,3.48-9.07,3.48a10.29,10.29,0,0,1-7.61-2.83,10.8,10.8,0,0,1-2.92-5.92l3.24-1a8.32,8.32,0,0,0,2.19,4.62,7,7,0,0,0,5.18,2,8.59,8.59,0,0,0,6.08-2.1,7.67,7.67,0,0,0,2.35-5.59,5.4,5.4,0,0,0-1.54-4,13.08,13.08,0,0,0-4-2.35l-1.94-.81a13.55,13.55,0,0,1-4.78-3,6.48,6.48,0,0,1-1.95-4.78,8.23,8.23,0,0,1,2.43-6.07,9.74,9.74,0,0,1,7.29-2.92,9.22,9.22,0,0,1,5.35,1.46A7.06,7.06,0,0,1,708.59,220.19Z"/><path class="cls-1" d="M740.75,242.71l-2.92,24.54h-3.24l6.24-51.68h3.24l-.73,5.75a14.25,14.25,0,0,1,4.94-4.45,16.46,16.46,0,0,1,8.27-2,14.46,14.46,0,0,1,10.69,4q4,4.14,4,11,0,9.39-5.59,14.82a16.27,16.27,0,0,1-12,4.78,15.6,15.6,0,0,1-8.51-2.35A13.85,13.85,0,0,1,740.75,242.71Zm12.8,3.72a13.56,13.56,0,0,0,9.48-3.24q4.77-4.37,4.77-12.71,0-6-3.64-9.48a10.75,10.75,0,0,0-7.94-3.08,13.43,13.43,0,0,0-9.88,4q-4.55,4.55-4.54,12.07a12.74,12.74,0,0,0,3.65,9.4A11.11,11.11,0,0,0,753.55,246.43Z"/><path class="cls-1" d="M818.67,214.84q7.7,0,12.31,4.62,4.14,4.13,4.13,11.42,0,8.67-5.42,13.77-5.19,4.86-13.53,4.86-7.36,0-11.66-4.53a15.9,15.9,0,0,1-4.38-11.51,19.75,19.75,0,0,1,1.5-7.49,18.6,18.6,0,0,1,4-6.2A18.17,18.17,0,0,1,818.67,214.84Zm-2,31.59a14.5,14.5,0,0,0,10.2-3.72,15.06,15.06,0,0,0,4.86-11.5,13.42,13.42,0,0,0-3.48-9.4,13.07,13.07,0,0,0-9.88-3.89A14.51,14.51,0,0,0,803.52,233a13.61,13.61,0,0,0,3.73,9.8A12.38,12.38,0,0,0,816.65,246.43Z"/><path class="cls-1" d="M864.11,248.62l4-33.05h3.24l-.48,4.3a8.83,8.83,0,0,1,3.15-3.57,8.37,8.37,0,0,1,4.86-1.46,6.83,6.83,0,0,1,3.24.81l-1.94,2.92a3.94,3.94,0,0,0-2.35-.65,6,6,0,0,0-4.54,2.11q-2.83,3-3.88,12l-2.11,16.61Z"/><path class="cls-1" d="M919.51,218.65h-5.75l-3.64,30h-3.24l3.64-30h-3.64l.4-3.08h3.65l1.46-11.82h3.24l-1.46,11.82h5.75Z"/><path class="cls-1" d="M450.93,8V73.7h65.29V31.25A23.28,23.28,0,0,1,539.51,8h0V174.05H516.22V97.61H450.93v76.44H427.65V31.25A23.28,23.28,0,0,1,450.93,8Z"/><path class="cls-1" d="M591.33,29.63Q613.92,5,647.94,5t56.61,24.65q22.61,24.65,22.6,61.5t-22.6,61.51Q682,177.29,647.94,177.29t-56.61-24.65Q568.72,128,568.73,91.13T591.33,29.63Zm16.43,106.7q15.75,17.55,40.18,17.55t40.18-17.55q15.75-17.57,15.75-45.2T688.12,45.94q-15.75-17.55-40.18-17.55T607.76,45.94Q592,63.49,592,91.13T607.76,136.33Z"/><path class="cls-1" d="M734.46,8h0a35.79,35.79,0,0,1,33.65,23.61L799.75,119,840.84,0l39.72,119,32.75-87.53A36.19,36.19,0,0,1,947.22,8h0l-68,176.79L839.47,67,799.29,184.76Z"/><path class="cls-2" d="M341,262.2H0a24.68,24.68,0,0,1,24.69-24.69H332.81q39.62,0,39.61-48.25,0-44.31-36-44.32H213.49q-26.24,0-42.44-20t-16.2-48.73q0-28.72,16.2-49T213.49,6.93H388.88a24.68,24.68,0,0,1-24.69,24.68H221.72q-39.61,0-39.61,42.91,0,44.63,35.49,44.61H341q26.23,0,42.44,19.92t16.2,48.53q0,32-14.4,52.18Q369.32,262.2,341,262.2Z"/><path class="cls-2" d="M50.59,179.43H328.94a8.8,8.8,0,0,1,8.8,8.8v7.09a8.8,8.8,0,0,1-8.8,8.8H25.9a0,0,0,0,1,0,0v0A24.69,24.69,0,0,1,50.59,179.43Z"/><path class="cls-2" d="M76.49,119.52h61.05a6.74,6.74,0,0,1,6.74,6.74v11.2a6.74,6.74,0,0,1-6.74,6.74H51.81a0,0,0,0,1,0,0v0a24.69,24.69,0,0,1,24.69-24.69Z"/></g></g></g></svg>