<svg xmlns="http://www.w3.org/2000/svg" viewBox="0 0 20 19.54"><defs><style>.cls-1{fill:none;}.cls-1,.cls-2{stroke:#1a2c3f;stroke-linecap:round;stroke-linejoin:round;stroke-width:1.5px;}.cls-2{fill:#1a2c3f;}</style></defs><g id="Слой_2" data-name="Слой 2"><g id="Layer_1" data-name="Layer 1"><g id="Iconly_1" data-name="Iconly 1"><g id="Iconly_Light_Buy" data-name="Iconly Light Buy"><g id="Buy-4"><path id="Stroke_1-26" data-name="Stroke 1-26" class="cls-1" d="M.75.75l2.08.36,1,11.47a1.81,1.81,0,0,0,1.8,1.66H16.5a1.81,1.81,0,0,0,1.79-1.55l.95-6.56A1.36,1.36,0,0,0,18.1,4.61H3.16"/><path id="Stroke_3-19" data-name="Stroke 3-19" class="cls-1" d="M12.13,8.3H14.9"/><path id="Stroke_5-10" data-name="Stroke 5-10" class="cls-2" d="M5.15,17.7a.55.55,0,0,1,.55.55.54.54,0,0,1-.54.54.55.55,0,0,1-.55-.54h0a.55.55,0,0,1,.54-.55Z"/><path id="Stroke_7-7" data-name="Stroke 7-7" class="cls-2" d="M16.43,17.7a.55.55,0,0,1,.55.55.54.54,0,0,1-.54.54.55.55,0,0,1-.55-.54h0A.55.55,0,0,1,16.43,17.7Z"/></g></g></g></g></g></svg>