<?xml version="1.0" encoding="utf-8"?>
<!-- Generator: Adobe Illustrator 24.3.0, SVG Export Plug-In . SVG Version: 6.00 Build 0)  -->
<svg version="1.1" id="Capa_1" xmlns="http://www.w3.org/2000/svg" xmlns:xlink="http://www.w3.org/1999/xlink" x="0px" y="0px"
	 viewBox="0 0 512 512" style="enable-background:new 0 0 512 512;" xml:space="preserve">
<style type="text/css">
	.st0{fill:#7B9BB2;}
</style>
<g>
	<g>
		<path class="st0" d="M406,332c-29.6,0-55.8,14.6-72.2,36.8L192,296.1c2.4-8,4-16.3,4-25.1c0-11.9-2.4-23.2-6.7-33.6L337.8,148
			c16.5,19.4,40.8,32,68.2,32c49.6,0,90-40.4,90-90S455.6,0,406,0s-90,40.4-90,90c0,11.4,2.4,22.3,6.3,32.4l-148.9,89.6
			C156.9,193.1,132.9,181,106,181c-49.6,0-90,40.4-90,90s40.4,90,90,90c30.1,0,56.7-15,73-37.8l141.4,72.4
			c-2.6,8.4-4.4,17.2-4.4,26.4c0,49.6,40.4,90,90,90s90-40.4,90-90S455.6,332,406,332z"/>
	</g>
</g>
</svg>
