<?xml version="1.0" encoding="utf-8"?>
<!-- Generator: Adobe Illustrator 24.3.0, SVG Export Plug-In . SVG Version: 6.00 Build 0)  -->
<svg version="1.1" id="Capa_1" xmlns="http://www.w3.org/2000/svg" xmlns:xlink="http://www.w3.org/1999/xlink" x="0px" y="0px"
	 viewBox="0 0 121 115" style="enable-background:new 0 0 121 115;" xml:space="preserve">
<style type="text/css">
	.st0{fill:#04283E;}
</style>
<g>
	<g>
		<path class="st0" d="M60.1,60.6c-12.7,0-23-10.3-23-23s10.3-23,23-23s23,10.3,23,23S72.7,60.6,60.1,60.6z M60.1,18.6
			c-10.5,0-19,8.5-19,19s8.5,19,19,19c10.5,0,19-8.5,19-19S70.5,18.6,60.1,18.6z"/>
	</g>
	<path class="st0" d="M53,61.4c2.7-0.3,5.9-0.6,8.5-0.8c4.4-0.3,4.6-2.1,6-2.1l-2.5-0.3c-1.3-0.3-2.6-0.6-4-0.8
		c-1.4-0.2-2.8-0.3-4.3-0.3c-18,0-32.6,14.6-32.6,32.6c0,2.3,0.2,4.5,0.7,6.6v0c0.5,2.3,2.5,4,4.9,4H30h30.9h2c1.1,0,2-0.9,2-2l0,0
		c0-1.1-0.9-2-2-2h-2H28.8c-0.9-3.8-1.1-7.9-0.2-12.1C30.9,72.2,40.9,62.9,53,61.4z"/>
	<path class="st0" d="M65.1,80.4L65.1,80.4c0-1.1,0.9-2,2-2h28c1.1,0,2,0.9,2,2v0c0,1.1-0.9,2-2,2h-28C66,82.4,65.1,81.5,65.1,80.4z
		"/>
	<path class="st0" d="M81,96.4L81,96.4c-1.1,0-2-0.9-2-2v-28c0-1.1,0.9-2,2-2h0c1.1,0,2,0.9,2,2v28C83,95.5,82.1,96.4,81,96.4z"/>
</g>
</svg>
