<?xml version="1.0" encoding="utf-8"?>
<!-- Generator: Adobe Illustrator 24.3.0, SVG Export Plug-In . SVG Version: 6.00 Build 0)  -->
<svg version="1.1" id="Слой_1" xmlns="http://www.w3.org/2000/svg" xmlns:xlink="http://www.w3.org/1999/xlink" x="0px" y="0px"
	 viewBox="0 0 65.2 97.8" style="enable-background:new 0 0 65.2 97.8;" xml:space="preserve">
<style type="text/css">
	.st0{fill:#FFA100;}
</style>
<path class="st0" d="M32.6,92.4l-1.9-2.1c-1.2-1.2-29-34-29-53.7c0-17.1,13.8-30.9,30.9-30.9s30.9,13.8,30.9,30.9
	c0,19.7-27.8,52.5-29,54L32.6,92.4z M32.6,10.4c-14.5,0-26.2,11.7-26.2,26.2c0,15.2,20,40.9,26.2,48.5c6.2-7.6,26.2-33.3,26.2-48.5
	C58.7,22.1,47.1,10.4,32.6,10.4z"/>
<path class="st0" d="M32.6,48.4c-6.7,0-11.9-5.2-11.9-11.9s5.2-11.9,11.9-11.9s11.9,5.2,11.9,11.9S39.2,48.4,32.6,48.4z M32.6,29.4
	c-4,0-7.1,3.1-7.1,7.1s3.1,7.1,7.1,7.1s7.1-3.1,7.1-7.1C39.7,32.5,36.6,29.4,32.6,29.4z"/>
</svg>
