<?xml version="1.0" encoding="utf-8"?>
<!-- Generator: Adobe Illustrator 24.3.0, SVG Export Plug-In . SVG Version: 6.00 Build 0)  -->
<svg version="1.1" id="Слой_1" xmlns="http://www.w3.org/2000/svg" xmlns:xlink="http://www.w3.org/1999/xlink" x="0px" y="0px"
	 viewBox="0 0 37.8 37.8" style="enable-background:new 0 0 37.8 37.8;" xml:space="preserve">
<style type="text/css">
	.st0{fill:#7B9BB2;}
</style>
<path class="st0" d="M32.2,3.8c0.6,0,1.2,0.2,1.6,0.7c0.4,0.4,0.7,1,0.7,1.6v17.8c0,0.6-0.2,1.2-0.7,1.6c-0.4,0.4-1,0.7-1.6,0.7
	h-5.5c-0.7,0-1.4,0.2-2,0.5c-0.6,0.3-1.2,0.8-1.6,1.3l-4.2,5.6l-4.2-5.6c-0.4-0.6-0.9-1-1.6-1.3c-0.6-0.3-1.3-0.5-2-0.5H5.6
	C5,26,4.4,25.8,4,25.3c-0.4-0.4-0.7-1-0.7-1.6V6c0-0.6,0.2-1.2,0.7-1.6C4.4,4,5,3.8,5.6,3.8H32.2z M5.6,1.6C4.4,1.6,3.3,2,2.4,2.9
	S1.1,4.8,1.1,6v17.8c0,1.2,0.5,2.3,1.3,3.1c0.8,0.8,2,1.3,3.1,1.3h5.5c0.3,0,0.7,0.1,1,0.2c0.3,0.2,0.6,0.4,0.8,0.7l4.2,5.6
	c0.2,0.3,0.5,0.5,0.8,0.7c0.3,0.2,0.6,0.2,1,0.2c0.3,0,0.7-0.1,1-0.2c0.3-0.2,0.6-0.4,0.8-0.7l4.2-5.6c0.2-0.3,0.5-0.5,0.8-0.7
	c0.3-0.2,0.6-0.2,1-0.2h5.5c1.2,0,2.3-0.5,3.1-1.3c0.8-0.8,1.3-2,1.3-3.1V6c0-1.2-0.5-2.3-1.3-3.1c-0.8-0.8-2-1.3-3.1-1.3H5.6z"/>
</svg>
