<?xml version="1.0" encoding="utf-8"?>
<!-- Generator: Adobe Illustrator 24.3.0, SVG Export Plug-In . SVG Version: 6.00 Build 0)  -->
<svg version="1.1" id="Слой_1" xmlns="http://www.w3.org/2000/svg" xmlns:xlink="http://www.w3.org/1999/xlink" x="0px" y="0px"
	 viewBox="0 0 417.7 261" style="enable-background:new 0 0 417.7 261;" xml:space="preserve">
<style type="text/css">
	.st0{fill:#9E9E9E;}
</style>
<g>
	<path class="st0" d="M313.7,125c0,4.1,0,8.1,0,12.2c-0.1,0.6-0.3,1.2-0.3,1.8c-1,14.5-4.9,28.3-11.9,41.1
		c-16.2,29.4-40.8,47.3-73.8,53.7c-4,0.8-8,1.1-12.1,1.6c-4.1,0-8.1,0-12.2,0c-0.5-0.1-1-0.3-1.6-0.3c-14.6-1-28.4-4.7-41.1-11.9
		c-34.3-19.2-52.9-48.5-55.3-87.7c-1.2-20.6,3.7-40,14.5-57.5C139.4,46.3,168,29.2,205.1,27c18.8-1.1,36.7,3,53.3,12.1
		c29.4,16.2,47.4,40.8,53.7,73.9C312.8,117,313.2,121,313.7,125z M232.9,181.2c-1.3,0.4-2.3,0.9-3.3,1.1c-3.3,0.4-6.7,1-10,0.9
		c-3.6-0.1-5.4-1.9-5.7-5.4c-0.2-2.5-0.2-5.2,0.4-7.7c1.7-7.2,3.7-14.4,5.7-21.6c1.8-6.5,3.9-13,4.1-19.9c0.2-6.2-1.6-11.4-6.9-14.9
		c-5.2-3.5-11.1-3.8-17-3.2c-6.7,0.8-12.9,3.5-19.2,5.9c-0.5,0.2-1,0.7-1.1,1.2c-0.6,2-1,4-1.6,6.3c0.8-0.2,1.4-0.4,2-0.6
		c3.9-1.4,7.8-2.2,12-1.3c2.9,0.6,4.5,1.9,4.7,4.8c0.2,3.3,0.1,6.7-0.6,9.9c-1.6,7.1-3.7,14.1-5.7,21.2c-1.8,6.4-3.6,12.8-3.8,19.5
		c-0.2,7,3.5,12.8,9.8,15.5c5.4,2.3,11.2,2.8,16.8,1.5c5.8-1.4,11.4-3.7,17.1-5.7c0.4-0.1,0.8-0.6,0.9-0.9
		C231.9,185.7,232.3,183.6,232.9,181.2z M218.7,66.8c-1.8,0.4-3.7,0.6-5.5,1.1c-9.3,3-13.4,13.8-8,21.7c3.9,5.8,9.7,7.7,16.5,6.9
		c8-1,13.9-8.7,12.8-16.7C233.4,72.5,226.7,67,218.7,66.8z"/>
</g>
</svg>
